<svg width="107" height="100" viewBox="0 0 107 100" fill="none" xmlns="http://www.w3.org/2000/svg">
<path d="M61.098 95.1961C86.005 95.1961 106.196 75.005 106.196 50.098C106.196 25.1911 86.005 5 61.098 5C36.1911 5 16 25.1911 16 50.098C16 75.005 36.1911 95.1961 61.098 95.1961Z" fill="#E9F4FC"/>
<path d="M67.8739 9.5657C68.8695 9.5657 69.6765 8.75864 69.6765 7.76308C69.6765 6.76751 68.8695 5.96045 67.8739 5.96045C66.8784 5.96045 66.0713 6.76751 66.0713 7.76308C66.0713 8.75864 66.8784 9.5657 67.8739 9.5657Z" fill="#001036"/>
<path d="M13.913 60.1541C14.9085 60.1541 15.7156 59.347 15.7156 58.3515C15.7156 57.3559 14.9085 56.5488 13.913 56.5488C12.9174 56.5488 12.1104 57.3559 12.1104 58.3515C12.1104 59.347 12.9174 60.1541 13.913 60.1541Z" fill="#001036"/>
<path d="M94.4304 10.7451C93.4983 10.7451 92.7441 9.99007 92.7441 9.05882V5.68627C92.7441 4.75503 93.4983 4 94.4304 4C95.3625 4 96.1167 4.75503 96.1167 5.68627V9.05882C96.1167 9.99007 95.3625 10.7451 94.4304 10.7451Z" fill="#001036"/>
<path d="M94.4304 20.8628C93.4983 20.8628 92.7441 20.1077 92.7441 19.1765V15.804C92.7441 14.8727 93.4983 14.1177 94.4304 14.1177C95.3625 14.1177 96.1167 14.8727 96.1167 15.804V19.1765C96.1167 20.1077 95.3625 20.8628 94.4304 20.8628Z" fill="#001036"/>
<path d="M91.0578 14.1177H87.6853C86.7532 14.1177 85.999 13.3626 85.999 12.4314C85.999 11.5001 86.7532 10.7451 87.6853 10.7451H91.0578C91.9899 10.7451 92.7441 11.5001 92.7441 12.4314C92.7441 13.3626 91.9899 14.1177 91.0578 14.1177Z" fill="#001036"/>
<path d="M101.176 14.1177H97.803C96.8709 14.1177 96.1167 13.3626 96.1167 12.4314C96.1167 11.5001 96.8709 10.7451 97.803 10.7451H101.176C102.108 10.7451 102.862 11.5001 102.862 12.4314C102.862 13.3626 102.108 14.1177 101.176 14.1177Z" fill="#001036"/>
<path d="M60.0408 87.6924C63.9934 87.6924 67.1977 84.4881 67.1977 80.5354C67.1977 76.5827 63.9934 73.3784 60.0408 73.3784C56.0881 73.3784 52.8838 76.5827 52.8838 80.5354C52.8838 84.4881 56.0881 87.6924 60.0408 87.6924Z" fill="#C1DBDC"/>
<path d="M60.0395 89.3787C55.1637 89.3787 51.1963 85.4118 51.1963 80.5347C51.1963 75.6588 55.1633 71.6914 60.0395 71.6914C64.9171 71.6914 68.884 75.6584 68.884 80.5347C68.884 85.4118 64.9171 89.3787 60.0395 89.3787ZM60.0395 75.0644C57.0228 75.0644 54.5688 77.5179 54.5688 80.5351C54.5688 83.5522 57.0224 86.0066 60.0395 86.0066C63.0567 86.0066 65.5115 83.5522 65.5115 80.5351C65.5115 77.5179 63.0563 75.0644 60.0395 75.0644Z" fill="#001036"/>
<path d="M60.0407 28.9626C74.0182 28.9626 86.6767 34.6816 95.8707 43.9337L101.932 37.6051C91.1188 27.052 76.3436 20.54 60.0407 20.54C43.6012 20.54 28.7114 27.1574 17.875 37.8674L23.9511 44.1968C33.1657 34.7899 45.9308 28.9626 60.0407 28.9626Z" fill="#C1DBDC"/>
<path d="M23.9509 45.8837C23.9475 45.8837 23.9458 45.8837 23.9424 45.8837C23.4863 45.8811 23.05 45.6944 22.7338 45.3651L16.6577 39.0344C16.0203 38.37 16.0338 37.3153 16.6889 36.6673C28.3133 25.1804 43.7089 18.8535 60.0397 18.8535C76.2224 18.8535 91.5174 25.0839 103.109 36.3979C103.771 37.0442 103.789 38.1032 103.148 38.7718L97.0884 45.1004C96.7739 45.4279 96.3393 45.616 95.8848 45.6197C95.4519 45.6459 94.994 45.4444 94.6745 45.1223C85.3983 35.7892 73.0986 30.649 60.0401 30.649C46.8463 30.649 34.4576 35.879 25.157 45.3769C24.8387 45.7007 24.404 45.8837 23.9509 45.8837ZM20.2575 37.9147L23.9825 41.7944C33.7726 32.4187 46.5103 27.2765 60.0397 27.2765C73.4295 27.2765 86.0715 32.3277 95.8287 41.539L99.5423 37.6618C88.7413 27.6947 74.7785 22.2261 60.0401 22.2261C45.1579 22.2261 31.0964 27.7857 20.2575 37.9147Z" fill="#001036"/>
<path d="M60.0403 47.6025C69.08 47.6025 77.2644 51.2499 83.2156 57.1468L89.1328 50.9683C81.6449 43.5997 71.3759 39.0488 60.0403 39.0488C48.5762 39.0488 38.198 43.6992 30.6895 51.2166L36.6201 57.3951C42.5903 51.3527 50.875 47.6025 60.0403 47.6025Z" fill="#9DC1E4"/>
<path d="M36.6197 59.0812C36.6163 59.0812 36.6113 59.0812 36.6083 59.0812C36.1522 59.0779 35.7192 58.8911 35.403 58.5627L29.4733 52.385C28.8375 51.7232 28.8493 50.6747 29.4981 50.0259C37.6546 41.8606 48.5016 37.3633 60.0404 37.3633C71.4358 37.3633 82.1875 41.7683 90.3157 49.7667C90.973 50.4138 90.9894 51.4685 90.352 52.1346L84.4353 58.3131C84.1225 58.6399 83.6908 58.8279 83.238 58.8334C82.7621 58.8144 82.3489 58.6622 82.0294 58.3452C76.1359 52.5048 68.3267 49.289 60.0404 49.289C51.6322 49.289 43.7408 52.5891 37.8191 58.5808C37.5025 58.9008 37.0708 59.0812 36.6197 59.0812ZM33.0726 51.2649L36.6656 55.0089C43.0684 49.1326 51.3021 45.9165 60.0395 45.9165C68.6471 45.9165 76.7918 49.0487 83.155 54.772L86.74 51.028C79.4068 44.3786 69.9894 40.7358 60.0395 40.7358C49.9535 40.7358 40.4421 44.4621 33.0726 51.2649Z" fill="#001036"/>
<path d="M60.041 64.5488C64.5328 64.5488 68.5857 66.4075 71.4899 69.3905L77.1571 63.4734C72.7812 59.0836 66.7291 56.3657 60.041 56.3657C53.2309 56.3657 47.0899 59.1923 42.6968 63.7242L48.3702 69.6342C51.2879 66.512 55.4303 64.5488 60.041 64.5488Z" fill="#00CCCA"/>
<path d="M48.3706 71.3208C47.9111 71.3208 47.4731 71.134 47.1535 70.8022L41.4788 64.8918C40.8515 64.2371 40.8532 63.2022 41.4855 62.55C46.4061 57.4756 52.9964 54.6802 60.0396 54.6802C66.9609 54.6802 73.464 57.3799 78.35 62.2832C78.9971 62.932 79.0072 63.9783 78.3749 64.6406L72.7086 70.5573C72.389 70.8882 71.8836 71.0792 71.4898 71.0767C71.0354 71.0767 70.599 70.8929 70.2812 70.567C67.5625 67.7733 63.9248 66.2354 60.04 66.2354C56.0499 66.2354 52.3447 67.8517 49.6028 70.7854C49.2866 71.1239 48.8453 71.3174 48.3824 71.3208C48.379 71.3208 48.3739 71.3208 48.3706 71.3208ZM45.079 63.7713L48.4169 67.2467C51.623 64.4433 55.7695 62.8632 60.0396 62.8632C64.257 62.8632 68.2387 64.329 71.4219 67.0237L74.7582 63.5399C70.6728 59.9903 65.5052 58.0527 60.0396 58.0527C54.4589 58.0531 49.2057 60.072 45.079 63.7713Z" fill="#001036"/>
<path d="M92.7444 68.0781L84.313 78.1958H89.3718V88.3134H96.1169V78.1958H101.176L92.7444 68.0781Z" fill="#C5E146"/>
<path d="M96.1166 89.9998H89.3715C88.4394 89.9998 87.6852 89.2448 87.6852 88.3135V79.8821H84.3127C83.6588 79.8821 83.0627 79.5036 82.7862 78.9113C82.5079 78.3185 82.5986 77.6187 83.0168 77.1162L91.4481 66.9986C92.0902 66.2296 93.3979 66.2296 94.0399 66.9986L102.471 77.1162C102.89 77.6183 102.98 78.3185 102.702 78.9113C102.425 79.5032 101.829 79.8821 101.175 79.8821H97.8029V88.3135C97.8029 89.2448 97.0487 89.9998 96.1166 89.9998ZM91.0578 86.6272H94.4303V78.1959C94.4303 77.2646 95.1845 76.5096 96.1166 76.5096H97.5756L92.744 70.7122L87.9124 76.5096H89.3715C90.3036 76.5096 91.0578 77.2646 91.0578 78.1959V86.6272Z" fill="#001036"/>
<path d="M25.1685 72.4379C24.9851 72.2634 24.7445 72.1758 24.4475 72.1758H21.4853C21.1878 72.1758 20.9649 72.2327 20.8166 72.3461C20.6679 72.4599 20.5061 72.6739 20.3316 72.9886L15.1147 82.6899C14.9398 83.0222 14.8525 83.4503 14.8525 83.9748V84.9974C14.8525 85.2948 14.9398 85.5308 15.1147 85.7053C15.2894 85.8804 15.5251 85.9676 15.8226 85.9676H22.3242V88.4847C22.3242 88.8517 22.5076 89.0353 22.8747 89.0353H24.9196C25.1118 89.0353 25.2472 88.9961 25.3259 88.9173C25.4046 88.8386 25.4439 88.6945 25.4439 88.4847V85.9674H27.3316C27.681 85.9674 27.8557 85.7665 27.8557 85.3642V83.6075C27.8557 83.2582 27.6808 83.0831 27.3316 83.0831H25.4439V73.1458C25.4437 72.8488 25.3521 72.613 25.1685 72.4379ZM22.3242 83.0833H18.0773L22.3242 74.9814V83.0833Z" fill="#001036"/>
<path d="M37.4172 79.0436H39.4058C39.7336 79.0436 39.8973 78.8721 39.8973 78.5288V77.8267C39.8973 76.6098 39.5617 75.6701 38.8912 75.0068C38.2203 74.3439 37.2769 74.0122 36.06 74.0122H33.5799C32.3475 74.0122 31.3959 74.3398 30.7253 74.9951C30.0544 75.6505 29.7192 76.5944 29.7192 77.8267V85.2449C29.7192 86.4775 30.0544 87.4213 30.7253 88.0765C31.3959 88.7318 32.3475 89.0594 33.5799 89.0594H36.06C37.2767 89.0594 38.2203 88.7281 38.8912 88.0648C39.5617 87.4021 39.8973 86.4618 39.8973 85.2449V81.337C39.8973 80.9783 39.7178 80.7986 39.3591 80.7986H35.2647C34.9369 80.7986 34.7732 80.9625 34.7732 81.2901V82.8812C34.7732 83.209 34.9369 83.3727 35.2647 83.3727H36.6686C36.8401 83.3727 36.9259 83.4585 36.9259 83.6302V85.1046C36.9259 85.604 36.8243 85.9586 36.6219 86.1692C36.4189 86.3798 36.068 86.4851 35.5689 86.4851H34.048C33.5645 86.4851 33.2175 86.3798 33.0069 86.1692C32.7963 85.9586 32.6912 85.604 32.6912 85.1046V77.9672C32.6912 77.4682 32.7965 77.1132 33.0069 76.9024C33.2175 76.6918 33.5645 76.5865 34.048 76.5865H35.5689C36.068 76.5865 36.4189 76.692 36.6219 76.9024C36.8243 77.113 36.9259 77.4682 36.9259 77.9672V78.5289C36.9257 78.8719 37.0894 79.0436 37.4172 79.0436Z" fill="#001036"/>
</svg>
