<svg width="102" height="100" viewBox="0 0 102 100" fill="none" xmlns="http://www.w3.org/2000/svg">
<path fill-rule="evenodd" clip-rule="evenodd" d="M50.3281 0.0200482C59.2192 -0.376435 67.71 5.16324 73.7139 11.7217C79.1069 17.6128 77.0788 27.159 81.349 33.9057C86.6844 42.3355 103.068 45.5488 101.34 55.37C99.5857 65.341 81.6778 61.7708 75.0911 69.4685C68.4205 77.2641 73.6971 92.4412 64.9802 97.8626C56.8053 102.947 45.3766 97.9858 37.0729 93.1138C29.5886 88.7226 27.7244 79.0664 21.936 72.6078C16.0119 65.9977 5.96161 63.1584 2.79829 54.8701C-0.56592 46.0555 -0.359362 35.2286 4.60706 27.2039C9.4733 19.341 20.2931 18.4786 28.2476 13.7492C35.8515 9.22823 41.4866 0.414322 50.3281 0.0200482Z" fill="#E9F4FC"/>
<path d="M67.6008 22.2536C67.6008 31.5393 59.9781 39.0668 50.5748 39.0668C41.1716 39.0668 33.5488 31.5393 33.5488 22.2536C33.5488 12.9679 41.1716 5.44043 50.5748 5.44043C59.9781 5.44043 67.6008 12.9679 67.6008 22.2536Z" fill="url(#paint0_linear)"/>
<path d="M50.5749 44.6001C52.9255 44.6001 54.8314 46.5298 54.8314 48.9098C54.8314 51.2947 50.5749 56.0927 50.5749 56.0927C50.5749 56.0927 46.3184 51.2947 46.3184 48.9098C46.3184 46.5298 48.2242 44.6001 50.5749 44.6001Z" fill="#5A50F9"/>
<path d="M41.4062 73.1191L43.3384 84.1319L21.4334 88.0169L19.502 77.0041L22.2396 76.5148L38.6685 73.6084L41.4062 73.1191Z" fill="#3D9AE2"/>
<path d="M81.647 77.0041L79.7148 88.0169L57.8105 84.1319L59.7427 73.1191L62.4804 73.6084L78.9093 76.5148L81.647 77.0041Z" fill="#3D9AE2"/>
<path d="M28.9151 53.2486L34.5672 59.9919L36.7098 62.5453L38.6555 73.5908L21.9939 76.5244L21.5148 73.7458L14.7347 67.7788L9.35033 37.2237C8.94563 34.9218 10.4818 32.7266 12.7827 32.3216C15.0829 31.9165 17.2758 33.4546 17.6805 35.7566L19.5553 46.3792C19.7714 46.2835 19.9986 46.2174 20.2319 46.1815C21.7213 45.917 23.2382 46.4715 24.2073 47.6342L28.9151 53.2486Z" fill="#FFDAAA"/>
<path d="M81.5924 46.3792L83.4665 35.7566C83.8719 33.4546 86.0647 31.9165 88.3649 32.3216C90.6658 32.7266 92.202 34.9218 91.7973 37.2237L86.413 67.7788L79.6329 73.7458L79.1538 76.5244L62.4922 73.5908L64.4372 62.5453L66.5798 59.9919L72.2326 53.2486L76.9404 47.6342C77.9094 46.4715 79.4257 45.917 80.9158 46.1815C81.1484 46.2174 81.3763 46.2835 81.5924 46.3792Z" fill="#FFDAAA"/>
<path d="M59.0872 27.7872C59.0872 29.3151 57.8483 30.554 56.3204 30.554C54.7925 30.554 53.5537 29.3151 53.5537 27.7872C53.5537 26.2593 54.7925 25.0205 56.3204 25.0205C57.8483 25.0205 59.0872 26.2593 59.0872 27.7872Z" fill="white"/>
<path d="M47.595 16.7199C47.595 18.2478 46.3562 19.4866 44.8282 19.4866C43.3003 19.4866 42.0615 18.2478 42.0615 16.7199C42.0615 15.1919 43.3003 13.9531 44.8282 13.9531C46.3562 13.9531 47.595 15.1919 47.595 16.7199Z" fill="white"/>
<path d="M68.9037 51.8348C68.4128 51.839 67.926 51.9304 67.4668 52.1044C67.4668 52.0136 67.4937 51.927 67.4937 51.8348C67.4971 49.7588 66.0094 47.9849 63.9757 47.6398C61.9419 47.294 59.9578 48.4789 59.2845 50.4413C59.2005 50.4413 59.12 50.4157 59.0339 50.4157C56.698 50.4157 54.804 52.3219 54.804 54.6731H46.3442C46.3442 52.3219 44.4503 50.4157 42.1143 50.4157C42.0282 50.4157 41.9477 50.4358 41.863 50.4413C41.1897 48.4789 39.2063 47.294 37.1725 47.6398C35.1388 47.9849 33.6511 49.7588 33.6545 51.8348C33.6545 51.927 33.6759 52.0136 33.6814 52.1044C33.2215 51.9304 32.7354 51.839 32.2445 51.8348C29.9086 51.8348 28.0146 53.7411 28.0146 56.0922C28.0146 58.4433 29.9086 60.3496 32.2445 60.3496H68.9037C71.2396 60.3496 73.1336 58.4433 73.1336 56.0922C73.1336 53.7411 71.2396 51.8348 68.9037 51.8348Z" fill="#E9F4FC"/>
<path d="M41.419 71.8916L40.0273 72.1354L38.323 62.4842C38.2795 62.2425 38.1732 62.016 38.0145 61.8273L36.233 59.7039L34.065 61.5126L35.6037 63.3462L37.2445 72.6263L26.1133 74.5831L23.3278 75.074L23.0821 73.6853C23.0256 73.3699 22.8641 73.0835 22.624 72.8714L16.2028 67.2309L10.8897 37.1674C10.6407 35.6437 11.6653 34.204 13.1888 33.9361C14.7117 33.6683 16.1683 34.6722 16.456 36.1883L18.1521 45.7775C17.9278 45.9111 17.7132 46.0592 17.509 46.2217C15.1264 48.2287 14.8152 51.7781 16.8121 54.1674L27.1973 66.5162L29.3619 64.704L18.9787 52.3586C17.9837 51.166 18.1369 49.3965 19.3216 48.3919C19.5721 48.1798 19.8591 48.016 20.1696 47.9093C20.2179 47.8941 20.5933 47.7771 20.6602 47.7681C21.6559 47.587 22.673 47.9554 23.3195 48.7327L25.6103 51.4559L27.7735 49.6423L25.4847 46.9198C24.3442 45.5717 22.6392 44.8308 20.8734 44.9155L19.2395 35.7022C18.909 33.6993 17.5248 32.0282 15.6156 31.3266C13.7063 30.6256 11.5673 31.0023 10.0134 32.3125C8.45955 33.6228 7.73159 35.6657 8.10695 37.6604L13.5056 68.2107C13.5608 68.5261 13.7222 68.8132 13.963 69.0246L20.3842 74.6651L20.5443 75.5663L19.1526 75.8115C18.3832 75.9471 17.8698 76.6783 18.0065 77.446L19.9688 88.5549C20.0882 89.2283 20.674 89.7192 21.3592 89.7192C21.4427 89.7192 21.5248 89.7123 21.6069 89.6985L43.8734 85.7808C44.6427 85.6458 45.1554 84.9139 45.0195 84.1469L43.0626 73.0353C42.9971 72.6655 42.7873 72.3371 42.4789 72.1223C42.1704 71.9075 41.7889 71.8248 41.419 71.8916ZM22.5067 86.6738L21.0356 78.3411L22.4225 78.0974L30.7764 76.6336L40.5186 74.9129L41.9897 83.2456L22.5067 86.6738Z" fill="#0E0E2C"/>
<path d="M92.1177 33.3894C90.8064 31.5174 88.4943 30.6193 86.2608 31.1135C84.0274 31.6084 82.313 33.3976 81.9162 35.648L80.288 44.8625C78.5219 44.7771 76.8164 45.5194 75.677 46.8696L73.3863 49.5956L75.55 51.411L77.8414 48.6851C78.4881 47.9083 79.5033 47.5389 80.4985 47.7194C80.5607 47.7312 80.9437 47.8483 80.992 47.8607C81.2964 47.9648 81.5794 48.124 81.8258 48.3308C83.0198 49.3357 83.1771 51.1147 82.1777 52.3126L71.7988 64.6824L73.9639 66.4965L84.3518 54.1349C85.4361 52.8991 85.9144 51.2449 85.6556 49.6224C85.3967 47.9993 84.4284 46.5753 83.0136 45.7365L84.7093 36.1374C84.9826 34.6024 86.4506 33.5789 87.9877 33.8519C89.5254 34.1241 90.5503 35.5901 90.277 37.1258L84.9626 67.2202L78.5398 72.8665C78.2996 73.0788 78.1381 73.3662 78.0815 73.6812L77.8358 75.0714L75.0496 74.5806L63.9156 72.6211L65.5569 63.3315L67.096 61.4967L64.9274 59.6854L63.1371 61.8014C62.9777 61.9909 62.8714 62.2184 62.8286 62.4617L61.1239 72.12L59.7318 71.876C58.9629 71.7396 58.2293 72.2524 58.0933 73.0209L56.1304 84.1411C55.9938 84.909 56.5073 85.6416 57.2768 85.7767L79.5489 89.6985C79.6303 89.7123 79.7131 89.7192 79.7959 89.7192C80.4813 89.7192 81.0679 89.2278 81.1867 88.5537L83.1502 77.4334C83.2862 76.6649 82.7734 75.9322 82.0038 75.7972L80.6117 75.5518L80.7712 74.6496L87.194 69.0033C87.4348 68.7917 87.5963 68.5043 87.6522 68.1886L93.0515 37.6069C93.3165 36.1333 92.9804 34.6142 92.1177 33.3894ZM78.6482 86.6734L59.161 83.2417L60.6318 74.9004L70.3764 76.6229L78.7248 78.0882L80.1114 78.3322L78.6482 86.6734Z" fill="#0E0E2C"/>
<path d="M50.5745 43.3228C47.5186 43.3228 45.041 45.8385 45.041 48.9413C45.041 51.6676 48.7926 56.0517 49.545 56.9028C49.8078 57.1998 50.182 57.3692 50.5745 57.3692C50.9669 57.3692 51.3411 57.1998 51.6039 56.9028C52.3564 56.0517 56.1079 51.6676 56.1079 48.9413C56.1079 45.8385 53.6303 43.3228 50.5745 43.3228ZM50.5745 53.789C49.1053 51.918 47.8077 49.8124 47.8077 48.9413C47.8077 47.3899 49.0466 46.132 50.5745 46.132C52.1024 46.132 53.3412 47.3899 53.3412 48.9413C53.3412 49.8364 52.0423 51.9262 50.5745 53.789Z" fill="#0E0E2C"/>
<path d="M37.7762 49.0932C39.3121 49.0932 40.5574 50.3402 40.5574 51.8782H43.3386C43.3413 49.0715 41.2575 46.7006 38.4769 46.347C35.6964 45.9935 33.087 47.7674 32.389 50.4857C29.3172 50.4375 26.7872 52.892 26.739 55.968C26.6908 59.044 29.142 61.5774 32.2138 61.6256V58.8407C30.6779 58.8407 29.4326 57.5937 29.4326 56.0557C29.4326 54.5177 30.6779 53.2707 32.2138 53.2707C32.5214 53.2666 32.8263 53.3197 33.1148 53.4264C33.5847 53.6012 34.1123 53.5121 34.4993 53.1932C34.8864 52.8743 35.0751 52.3739 34.995 51.8782C34.995 50.3402 36.2403 49.0932 37.7762 49.0932Z" fill="#0E0E2C"/>
<path d="M68.9354 58.8407V61.6256C72.0072 61.5774 74.4584 59.044 74.4102 55.968C74.362 52.892 71.832 50.4375 68.7602 50.4857C68.0622 47.7674 65.4528 45.9935 62.6722 46.347C59.891 46.7006 57.8078 49.0715 57.8105 51.8782H60.5918C60.5992 50.3402 61.8506 49.0994 63.3865 49.1068C64.9231 49.115 66.1616 50.3681 66.1542 51.9061C66.0747 52.399 66.2642 52.8967 66.6519 53.2109C67.0396 53.525 67.5651 53.6073 68.0303 53.4264C68.3195 53.319 68.6264 53.2666 68.9354 53.2707C70.4713 53.2707 71.7166 54.5177 71.7166 56.0557C71.7166 57.5937 70.4713 58.8407 68.9354 58.8407Z" fill="#0E0E2C"/>
<path d="M70.1538 23.7427H73.1334V29.2761H70.1538V23.7427Z" fill="#0E0E2C"/>
<path d="M70.1538 32.2568H73.1334V34.8107H70.1538V32.2568Z" fill="#0E0E2C"/>
<path d="M76.1133 28H78.6672V36.513H76.1133V28Z" fill="#0E0E2C"/>
<path d="M76.1133 39.0674H78.6672V42.0469H76.1133V39.0674Z" fill="#0E0E2C"/>
<path d="M28.0146 23.7427H30.9942V29.2761H28.0146V23.7427Z" fill="#0E0E2C"/>
<path d="M28.0146 32.2568H30.9942V34.8107H28.0146V32.2568Z" fill="#0E0E2C"/>
<path d="M22.4814 28H25.0353V36.513H22.4814V28Z" fill="#0E0E2C"/>
<path d="M22.4814 39.0674H25.0353V42.0469H22.4814V39.0674Z" fill="#0E0E2C"/>
<path d="M41.21 29.8119L57.9643 12.6768L59.9386 14.6959L43.1842 31.831L41.21 29.8119Z" fill="#0E0E2C"/>
<path d="M56.1076 23.7427C53.7569 23.7427 51.8511 25.6485 51.8511 27.9992C51.8511 30.3498 53.7569 32.2557 56.1076 32.2557C58.4582 32.2557 60.3641 30.3498 60.3641 27.9992C60.3641 25.6485 58.4582 23.7427 56.1076 23.7427ZM56.1076 29.418C55.324 29.418 54.6887 28.7827 54.6887 27.9992C54.6887 27.2156 55.324 26.5803 56.1076 26.5803C56.8911 26.5803 57.5264 27.2156 57.5264 27.9992C57.5264 28.7827 56.8911 29.418 56.1076 29.418Z" fill="#0E0E2C"/>
<path d="M45.0407 20.764C47.3913 20.764 49.2972 18.8581 49.2972 16.5075C49.2972 14.1568 47.3913 12.251 45.0407 12.251C42.69 12.251 40.7842 14.1568 40.7842 16.5075C40.7842 18.8581 42.69 20.764 45.0407 20.764ZM45.0407 15.0886C45.8242 15.0886 46.4595 15.7239 46.4595 16.5075C46.4595 17.291 45.8242 17.9263 45.0407 17.9263C44.2571 17.9263 43.6218 17.291 43.6218 16.5075C43.6218 15.7239 44.2571 15.0886 45.0407 15.0886Z" fill="#0E0E2C"/>
<path d="M50.5744 40.3442C60.6829 40.3442 68.8774 32.1497 68.8774 22.0412C68.8774 11.9328 60.6829 3.73828 50.5744 3.73828C40.466 3.73828 32.2715 11.9328 32.2715 22.0412C32.2832 32.1448 40.4708 40.3325 50.5744 40.3442ZM50.5744 6.55412C59.1278 6.55412 66.0616 13.4879 66.0616 22.0412C66.0616 30.5946 59.1278 37.5284 50.5744 37.5284C42.0211 37.5284 35.0873 30.5946 35.0873 22.0412C35.0976 13.492 42.0252 6.56443 50.5744 6.55412Z" fill="#0E0E2C"/>
<defs>
<linearGradient id="paint0_linear" x1="36.339" y1="36.9649" x2="67.5439" y2="36.9649" gradientUnits="userSpaceOnUse">
<stop stop-color="#00B0EA"/>
<stop offset="0.503789" stop-color="#33C5C9"/>
<stop offset="1" stop-color="#21DBB3"/>
</linearGradient>
</defs>
</svg>
