<svg width="118" height="100" viewBox="0 0 118 100" fill="none" xmlns="http://www.w3.org/2000/svg">
<path fill-rule="evenodd" clip-rule="evenodd" d="M66.4407 95.4552C58.1037 98.5702 48.3197 95.9142 40.588 91.5232C33.643 87.579 32.6331 77.8721 26.4929 72.7681C18.821 66.3908 2.24356 68.3786 0.863624 58.5026C-0.537371 48.4757 17.5997 46.3582 21.4961 37.0063C25.4421 27.5354 15.7485 14.7206 22.3725 6.87843C28.5846 -0.476156 40.9856 0.724869 50.3861 2.80318C58.8588 4.67641 63.6059 13.2894 71.1018 17.6519C78.7734 22.1166 89.2097 21.7232 94.7714 28.6347C100.686 35.9851 103.824 46.3495 101.57 55.5136C99.361 64.4929 89.3325 68.6451 83.2208 75.5941C77.3785 82.2368 74.7312 92.3576 66.4407 95.4552Z" fill="#E9F4FC"/>
<path fill-rule="evenodd" clip-rule="evenodd" d="M22.7501 62.2327V50.447C22.7501 48.2863 20.9822 46.5184 18.8215 46.5184V28.8398H14.8929C12.7322 28.8398 10.9644 30.6077 10.9644 32.7684V79.9113C10.9644 82.072 12.7322 83.8398 14.8929 83.8398H18.8215V66.1613C20.9822 66.1613 22.7501 64.3934 22.7501 62.2327Z" fill="#C7CED1"/>
<path fill-rule="evenodd" clip-rule="evenodd" d="M22.7503 50.447V62.2327C22.7503 64.3934 20.9825 66.1613 18.8218 66.1613V83.8398H99.7503V28.8398C72.7736 28.8398 45.7977 28.8398 18.8218 28.8398V46.5184C20.9825 46.5184 22.7503 48.2863 22.7503 50.447Z" fill="#21D3A2"/>
<path fill-rule="evenodd" clip-rule="evenodd" d="M99.75 28.8398V83.8398H103.679C105.839 83.8398 107.607 82.072 107.607 79.9113V32.7684C107.607 30.6077 105.839 28.8398 103.679 28.8398H99.75Z" fill="#C7CED1"/>
<path fill-rule="evenodd" clip-rule="evenodd" d="M103.679 28.8403C103.679 18.8592 95.5874 10.7681 85.6064 10.7681C75.6253 10.7681 67.5342 18.8592 67.5342 28.8403C67.5342 38.8213 75.6253 46.9117 85.6064 46.9117C91.3335 46.9117 96.4391 44.2476 99.75 40.0912C102.209 37.0036 103.679 33.0934 103.679 28.8403Z" fill="#94DBE6"/>
<path fill-rule="evenodd" clip-rule="evenodd" d="M71.2605 54.6471C65.2809 51.195 59.3036 47.7391 53.3241 44.287C52.0358 43.4153 50.2603 44.3307 50.2603 45.9152L50.2687 66.7704C50.2679 68.2582 51.8892 69.2211 53.199 68.4661L71.2666 58.0355C72.5518 57.2927 72.5787 55.4067 71.2605 54.6471Z" fill="#FFBDBD"/>
<path d="M50.2656 70.3599C50.8794 70.7151 51.5531 70.8924 52.2268 70.8924C52.8974 70.8924 53.5688 70.7167 54.1811 70.3637L72.2494 59.9323C73.4564 59.2348 74.2053 57.9327 74.2045 56.5331C74.203 55.1167 73.4694 53.8483 72.2425 53.1424C69.2531 51.416 66.2637 49.6888 63.2743 47.9624C60.3018 46.2444 57.3293 44.5272 54.356 42.8108C53.1613 42.0381 51.6459 41.9729 50.3806 42.645C49.0947 43.3271 48.2959 44.6553 48.2959 46.1117L48.3043 66.9653C48.3028 68.3795 49.0363 69.6486 50.2656 70.3599ZM52.3419 46.1838C55.3313 47.9102 58.3207 49.6366 61.3101 51.3638C64.2925 53.0872 67.275 54.8098 70.269 56.5393L52.2329 66.9523L52.2252 46.1117C52.2636 46.137 52.302 46.1615 52.3419 46.1838Z" fill="#121212"/>
<path d="M85.6063 19.2144C80.8843 19.2144 76.4448 21.0536 73.1062 24.3921C72.3389 25.1594 72.3389 26.4032 73.1062 27.1705C73.8728 27.9378 75.1166 27.9378 75.8839 27.1705C78.4804 24.5732 81.9332 23.1429 85.6063 23.1429C89.2794 23.1429 92.7322 24.5732 95.3287 27.1705C95.7124 27.5541 96.215 27.746 96.7176 27.746C97.2209 27.746 97.7235 27.5541 98.1071 27.1705C98.8737 26.4032 98.8737 25.1594 98.1071 24.3921C94.7679 21.0536 90.3283 19.2144 85.6063 19.2144Z" fill="#0E0E2C"/>
<path d="M78.6618 29.9479C77.8953 30.7152 77.8953 31.959 78.6618 32.7263C79.4291 33.4936 80.6729 33.4928 81.4402 32.7263C83.7375 30.4282 87.4765 30.4282 89.7738 32.7263C90.1575 33.1099 90.6601 33.3017 91.1626 33.3017C91.6652 33.3017 92.1678 33.1099 92.5515 32.7263C93.3188 31.959 93.3188 30.7152 92.5515 29.9479C88.7219 26.1183 82.4914 26.1183 78.6618 29.9479Z" fill="#0E0E2C"/>
<path d="M85.6087 34.9287H85.6048C84.5199 34.9287 83.6421 35.808 83.6421 36.893C83.6421 37.978 84.5237 38.8573 85.6087 38.8573C86.6936 38.8573 87.573 37.978 87.573 36.893C87.573 35.808 86.6936 34.9287 85.6087 34.9287Z" fill="#0E0E2C"/>
<path d="M105.575 27.3868C104.733 17.1073 96.0992 9 85.6064 9C75.2217 9 66.6572 16.9423 65.6666 27.0722H38.4643C37.3793 27.0722 36.5 27.9515 36.5 29.0365C36.5 30.1207 37.3793 31.0008 38.4643 31.0008H65.6666C66.6572 41.1299 75.221 49.0722 85.6064 49.0722C90.1841 49.0722 94.4081 47.5276 97.7857 44.9341V82.0714H93.6538C92.5688 82.0714 91.6895 82.9507 91.6895 84.0357C91.6895 85.1207 92.5688 86 93.6538 86H103.679C106.928 86 109.571 83.3566 109.571 80.1071V32.9643C109.571 30.3785 107.896 28.1779 105.575 27.3868ZM85.6064 45.1436C76.7249 45.1436 69.4992 37.918 69.4992 29.0365C69.4992 20.1542 76.7249 12.9286 85.6064 12.9286C94.4879 12.9286 101.714 20.1535 101.714 29.0349V29.0365V29.0372C101.714 37.9187 94.4879 45.1436 85.6064 45.1436ZM105.643 80.1071C105.643 81.1905 104.762 82.0714 103.679 82.0714H101.714V40.938C103.614 38.3737 104.917 35.3429 105.416 32.0512C105.561 32.3244 105.643 32.6343 105.643 32.9643V80.1071Z" fill="#0E0E2C"/>
<path d="M88.0068 82.0713C86.9218 82.0713 86.0425 82.9506 86.0425 84.0356C86.0425 85.1205 86.9218 85.9999 88.0068 85.9999H88.0106C89.0956 85.9999 89.9726 85.1205 89.9726 84.0356C89.9726 82.9506 89.0917 82.0713 88.0068 82.0713Z" fill="#0E0E2C"/>
<path d="M30.5649 30.9999C31.6499 30.9999 32.5292 30.1205 32.5292 29.0356C32.5292 27.9506 31.6499 27.0713 30.5649 27.0713H30.5611C29.4761 27.0713 28.5991 27.9506 28.5991 29.0356C28.5991 30.1205 29.48 30.9999 30.5649 30.9999Z" fill="#0E0E2C"/>
<path d="M80.1071 82.0715H20.7857V67.9854C23.0723 67.1744 24.7143 64.9899 24.7143 62.4286V50.6429C24.7143 48.0817 23.0723 45.8972 20.7857 45.0869V31.0008H24.9176C26.0026 31.0008 26.8819 30.1207 26.8819 29.0366C26.8819 27.9516 26.0026 27.0723 24.9176 27.0723H14.8929C11.6433 27.0723 9 29.7156 9 32.9651V80.1072C9 83.3567 11.6433 86.0001 14.8929 86.0001H80.1071C81.1921 86.0001 82.0714 85.1207 82.0714 84.0358C82.0714 82.9508 81.1921 82.0715 80.1071 82.0715ZM12.9286 80.1072V32.9644C12.9286 31.8817 13.8094 31.0001 14.8929 31.0001H16.8571V46.7143C16.8571 47.7993 17.7365 48.6786 18.8214 48.6786C19.9049 48.6786 20.7857 49.5603 20.7857 50.6429V62.4286C20.7857 63.5121 19.9049 64.3929 18.8214 64.3929C17.7365 64.3929 16.8571 65.2722 16.8571 66.3572V82.0715H14.8929C13.8094 82.0715 12.9286 81.1906 12.9286 80.1072Z" fill="#0E0E2C"/>
</svg>
