<svg width="100" height="98" viewBox="0 0 100 98" fill="none" xmlns="http://www.w3.org/2000/svg">
<path fill-rule="evenodd" clip-rule="evenodd" d="M49.3415 0.0196473C58.0547 -0.368906 66.3757 5.05998 72.2596 11.4872C77.5447 17.2605 75.5571 26.6158 79.7419 33.2276C84.9707 41.4888 101.027 44.6379 99.3334 54.2626C97.6139 64.0342 80.0642 60.5354 73.6092 68.0791C67.0721 75.7188 72.2431 90.5924 63.7005 95.9054C55.6891 100.888 44.489 96.0261 36.3514 91.2515C29.0168 86.9482 27.1898 77.4851 21.5172 71.1556C15.7116 64.6777 5.86231 61.8952 2.76226 53.7727C-0.53467 45.1344 -0.332243 34.524 4.53485 26.6598C9.30376 18.9542 19.9072 18.109 27.7026 13.4742C35.1544 9.04367 40.6768 0.406035 49.3415 0.0196473Z" fill="#E9F4FC"/>
<path d="M68.9292 88.0769H32.5246C30.2711 88.0769 28.4443 86.2501 28.4443 83.9967V18.8405C28.4443 16.5871 30.2711 14.7603 32.5246 14.7603H68.9292C71.1826 14.7603 73.0094 16.5871 73.0094 18.8405V83.9967C73.0094 86.2501 71.1826 88.0769 68.9292 88.0769Z" fill="#73B3E5"/>
<path d="M68.9286 89.5146H32.5233C29.481 89.5146 27.0059 87.0395 27.0059 83.9965V18.8409C27.0059 15.7979 29.481 13.3228 32.5233 13.3228H68.929C71.9709 13.3228 74.4461 15.7979 74.4461 18.8409V83.9968C74.4461 87.0395 71.9709 89.5146 68.9286 89.5146V89.5146ZM32.5233 16.1979C31.0659 16.1979 29.881 17.3836 29.881 18.8409V83.9968C29.881 85.4542 31.0659 86.6398 32.5233 86.6398H68.929C70.3863 86.6398 71.5713 85.4542 71.5713 83.9968V18.8409C71.5713 17.3836 70.3863 16.1979 68.929 16.1979H32.5233Z" fill="#0E0E2C"/>
<path d="M58.6328 69.3888H55.7577C52.5863 69.3888 50.0073 66.8091 50.0073 63.6385C50.0073 60.4679 52.5863 57.8882 55.7577 57.8882H58.6328C59.4274 57.8882 60.0704 58.5319 60.0704 59.3258C60.0704 60.1197 59.4274 60.7633 58.6328 60.7633H55.7577C54.1727 60.7633 52.8825 62.0529 52.8825 63.6385C52.8825 65.2242 54.1727 66.5137 55.7577 66.5137H57.1952V65.0761C56.4006 65.0761 55.7577 64.4324 55.7577 63.6385C55.7577 62.8446 56.4006 62.2009 57.1952 62.2009H58.6328C59.4274 62.2009 60.0704 62.8446 60.0704 63.6385V67.9513C60.0704 68.7452 59.4274 69.3888 58.6328 69.3888Z" fill="#0E0E2C"/>
<path d="M14.068 39.1991C13.2733 39.1991 12.6304 38.5554 12.6304 37.7615V34.8863C12.6304 34.0924 13.2733 33.4487 14.068 33.4487C14.8626 33.4487 15.5055 34.0924 15.5055 34.8863V37.7615C15.5055 38.5554 14.8626 39.1991 14.068 39.1991Z" fill="#0E0E2C"/>
<path d="M14.068 47.8245C13.2733 47.8245 12.6304 47.1809 12.6304 46.387V43.5118C12.6304 42.7179 13.2733 42.0742 14.068 42.0742C14.8626 42.0742 15.5055 42.7179 15.5055 43.5118V46.387C15.5055 47.1809 14.8626 47.8245 14.068 47.8245Z" fill="#0E0E2C"/>
<path d="M11.1926 42.0744H8.31747C7.52284 42.0744 6.87988 41.4307 6.87988 40.6368C6.87988 39.8429 7.52284 39.1992 8.31747 39.1992H11.1926C11.9873 39.1992 12.6302 39.8429 12.6302 40.6368C12.6302 41.4307 11.9873 42.0744 11.1926 42.0744Z" fill="#0E0E2C"/>
<path d="M19.8176 42.0744H16.9425C16.1478 42.0744 15.5049 41.4307 15.5049 40.6368C15.5049 39.8429 16.1478 39.1992 16.9425 39.1992H19.8176C20.6123 39.1992 21.2552 39.8429 21.2552 40.6368C21.2552 41.4307 20.6123 42.0744 19.8176 42.0744Z" fill="#0E0E2C"/>
<path d="M20.5534 68.2142C21.4021 68.2142 22.0902 67.5261 22.0902 66.6774C22.0902 65.8287 21.4021 65.1406 20.5534 65.1406C19.7046 65.1406 19.0166 65.8287 19.0166 66.6774C19.0166 67.5261 19.7046 68.2142 20.5534 68.2142Z" fill="#0E0E2C"/>
<path d="M79.4933 65.3392C80.3421 65.3392 81.0301 64.6511 81.0301 63.8024C81.0301 62.9537 80.3421 62.2656 79.4933 62.2656C78.6446 62.2656 77.9565 62.9537 77.9565 63.8024C77.9565 64.6511 78.6446 65.3392 79.4933 65.3392Z" fill="#0E0E2C"/>
<path d="M54.3203 20.5109H47.1324C46.3378 20.5109 45.6948 19.8672 45.6948 19.0733C45.6948 18.2794 46.3378 17.6357 47.1324 17.6357H54.3203C55.1149 17.6357 55.7579 18.2794 55.7579 19.0733C55.7579 19.8672 55.1149 20.5109 54.3203 20.5109Z" fill="#0E0E2C"/>
<path d="M83.7908 89.5147C81.0166 89.5147 78.7593 87.2574 78.7593 84.4832C78.7593 81.709 81.0166 79.4517 83.7908 79.4517C86.565 79.4517 88.8224 81.709 88.8224 84.4832C88.8224 87.2574 86.565 89.5147 83.7908 89.5147ZM83.7908 82.3268C82.6016 82.3268 81.6344 83.294 81.6344 84.4832C81.6344 85.6724 82.6016 86.6396 83.7908 86.6396C84.9801 86.6396 85.9472 85.6724 85.9472 84.4832C85.9472 83.294 84.9801 82.3268 83.7908 82.3268Z" fill="#0E0E2C"/>
<path d="M68.6954 10.4478C67.9008 10.4478 67.2578 9.80408 67.2578 9.01018V3.25985C67.2578 2.46594 67.9008 1.82227 68.6954 1.82227C69.49 1.82227 70.133 2.46594 70.133 3.25985V9.01018C70.133 9.80408 69.49 10.4478 68.6954 10.4478Z" fill="#0E0E2C"/>
<path d="M75.8837 13.3229C75.516 13.3229 75.148 13.1824 74.8673 12.9017C74.3059 12.3403 74.3059 11.4303 74.8673 10.869L77.7425 7.99379C78.3039 7.43241 79.2139 7.43241 79.7752 7.99379C80.3366 8.55516 80.3366 9.46515 79.7752 10.0265L76.9001 12.9017C76.6194 13.1824 76.2514 13.3229 75.8837 13.3229Z" fill="#0E0E2C"/>
<path d="M84.5092 20.5109H78.7589C77.9642 20.5109 77.3213 19.8672 77.3213 19.0733C77.3213 18.2794 77.9642 17.6357 78.7589 17.6357H84.5092C85.3038 17.6357 85.9468 18.2794 85.9468 19.0733C85.9468 19.8672 85.3038 20.5109 84.5092 20.5109Z" fill="#0E0E2C"/>
<path d="M47.1324 69.3888C46.3378 69.3888 45.6948 68.7452 45.6948 67.9513V59.3258C45.6948 58.5319 46.3378 57.8882 47.1324 57.8882C47.927 57.8882 48.57 58.5319 48.57 59.3258V67.9513C48.57 68.7452 47.927 69.3888 47.1324 69.3888Z" fill="#0E0E2C"/>
<path d="M46.7945 63.6382H41.3824C40.5878 63.6382 39.9448 62.9945 39.9448 62.2006V56.4503C39.9448 55.6564 40.5878 55.0127 41.3824 55.0127C42.177 55.0127 42.82 55.6564 42.82 56.4503V60.763H46.7945C47.5892 60.763 48.2321 61.4067 48.2321 62.2006C48.2321 62.9945 47.5892 63.6382 46.7945 63.6382Z" fill="#0E0E2C"/>
<path d="M45.6944 46.3871C44.8998 46.3871 44.2568 45.7435 44.2568 44.9495V40.6368C44.2568 39.8429 44.8998 39.1992 45.6944 39.1992C46.489 39.1992 47.132 39.8429 47.132 40.6368V44.9495C47.132 45.7435 46.489 46.3871 45.6944 46.3871Z" fill="#FFCE56"/>
<path d="M50.0079 46.3879C49.2133 46.3879 48.5703 45.7442 48.5703 44.9503V36.3248C48.5703 35.5309 49.2133 34.8872 50.0079 34.8872C50.8025 34.8872 51.4455 35.5309 51.4455 36.3248V44.9503C51.4455 45.7442 50.8025 46.3879 50.0079 46.3879Z" fill="#A9BA5A"/>
<path d="M54.3199 46.3875C53.5253 46.3875 52.8823 45.7439 52.8823 44.95V33.4493C52.8823 32.6554 53.5253 32.0117 54.3199 32.0117C55.1145 32.0117 55.7575 32.6554 55.7575 33.4493V44.95C55.7575 45.7439 55.1145 46.3875 54.3199 46.3875Z" fill="#2EE52B"/>
<path d="M58.6324 46.3868C57.8378 46.3868 57.1948 45.7431 57.1948 44.9492V29.1358C57.1948 28.3419 57.8378 27.6982 58.6324 27.6982C59.427 27.6982 60.07 28.3419 60.07 29.1358V44.9492C60.07 45.7431 59.427 46.3868 58.6324 46.3868Z" fill="#0FAA00"/>
<path d="M41.3824 46.387C40.5878 46.387 39.9448 45.7433 39.9448 44.9494V43.5118C39.9448 42.7179 40.5878 42.0742 41.3824 42.0742C42.177 42.0742 42.82 42.7179 42.82 43.5118V44.9494C42.82 45.7433 42.177 46.387 41.3824 46.387Z" fill="#0E0E2C"/>
</svg>
