<svg xmlns="http://www.w3.org/2000/svg" width="267.132" height="38.699">
    <defs>
        <style>
            .cls-1{fill:#fff}
        </style>
    </defs>
    <g id="Grupo_22110" data-name="Grupo 22110" transform="translate(-.472 -.096)">
        <path id="Trazado_5357" data-name="Trazado 5357" class="cls-1" d="M129.174 9.39h2.717V5.169c0-2.922 1.8-4.974 5.143-4.974h5.6v3.97h-4.972a.876.876 0 0 0-.962 1V9.39h4.892v3.974H136.7v17.593h-4.807V13.364h-2.717zm15.549-9.2h4.807v25.5c0 .627.209.878.835.878h2.968v4.389h-4.68c-2.969 0-3.934-2.135-3.934-5.016zm21.734 7.691a11.862 11.862 0 1 1-4.543.9 11.821 11.821 0 0 1 4.543-.896zm0 18.975a7.119 7.119 0 1 0-7.192-7.1 7.145 7.145 0 0 0 7.192 7.1zm-2.3-9.985a.387.387 0 0 1 .585-.376l4.973 2.839a.4.4 0 0 1 .25.376.446.446 0 0 1-.073.222.463.463 0 0 1-.176.154l-4.975 2.842a.314.314 0 0 1-.209.042.385.385 0 0 1-.377-.418zm21.609 13.957-6.645-22.274h5.224l5.016 18.14h.127l5.178-18.14h4.975l5.394 18.14h.126l4.808-18.14h4.806l-6.518 22.4h-6.773L197.22 15.2h-.127l-4.554 15.757h-6.772z" transform="translate(52.83 .04)"/>
        <path id="Trazado_5358" data-name="Trazado 5358" class="cls-1" d="M.472 8.509h4.206l.084 4.248h.172a8.611 8.611 0 0 1 7.614-4.8c6.225 0 9.8 5.3 9.8 11.778 0 6.394-3.66 11.9-9.843 11.9a7.287 7.287 0 0 1-7.025-4.333h-.167v11.493H.481zm10.894 18.508c3.618 0 6.058-2.9 6.058-7.108 0-3.871-2.023-7.53-5.889-7.53-3.786 0-6.058 3.408-6.058 7.361s2.023 7.277 5.889 7.277zM36.394 7.962c6.225 0 10.137 4.711 10.137 11.147V21.8h-16.7c.379 3.2 3.365 5.384 7.108 5.384a8.656 8.656 0 0 0 6.309-2.945l2.861 2.86A11.859 11.859 0 0 1 36.6 31.6a11.251 11.251 0 0 1-11.522-11.65c0-6.688 5.049-11.988 11.316-11.988zm5.426 10.051c-.084-3.155-1.977-5.636-5.636-5.636a6.33 6.33 0 0 0-6.352 5.636zm8.541-9.505h4.417v4.122h.122c1.1-2.904 2.7-4.123 5.893-4.123h1.472v4.833h-3.113c-2.776 0-3.954 1.641-3.954 4.669v13.004h-4.832zm15.9 15.187c1.85 2.271 4.121 3.955 7.066 3.955 2.061 0 3.786-.8 3.786-2.524 0-1.809-2.145-2.7-4.67-3.449-3.448-1.094-7.7-2.651-7.7-6.941 0-3.7 3.7-6.855 8.37-6.855a9.346 9.346 0 0 1 8.962 5.719l-3.528 1.807a5.983 5.983 0 0 0-5.426-3.533c-2.023 0-3.533 1.052-3.533 2.608 0 1.893 1.851 2.523 4.417 3.322 3.533 1.094 7.95 2.44 7.95 6.9s-4.248 6.941-8.791 6.941a11.823 11.823 0 0 1-9.927-5.384zM96.167 7.878A11.661 11.661 0 0 1 107.9 19.74 11.82 11.82 0 1 1 96.167 7.878zm-.088 19.35a7.284 7.284 0 0 0 7.193-7.487 7.2 7.2 0 1 0-14.385 0 7.283 7.283 0 0 0 7.192 7.487zM111.053 8.51h4.417v4.248h.084c1.515-2.7 3.659-4.88 7.446-4.88 4.921 0 7.613 3.7 7.613 8.918v14.217h-4.833v-13.46c0-3.07-1.135-5.384-4.158-5.384-3.786 0-5.722 3.7-5.722 7.193v11.651h-4.832zm33.239 9.379h4.416v-1.43a3.808 3.808 0 0 0-4.121-4.081 7.033 7.033 0 0 0-6.141 4.375l-4.081-1.977a10.92 10.92 0 0 1 10.264-6.815c5.169 0 8.918 3.034 8.918 8.5V26.3c0 .5.083.715.63.715h1.686v4h-3.071c-1.935 0-3.238-1.136-3.238-3.576v-1.095h-.21a8.691 8.691 0 0 1-7.993 5.17c-3.617 0-7.024-2.1-7.024-6.518s4.291-7.11 9.968-7.11zm-1.973 9.629a6.729 6.729 0 0 0 6.394-6.268h-4.158c-3.155 0-5.385 1.136-5.385 3.449 0 1.767 1.3 2.819 3.155 2.819zM159.233.1h4.832v26.075c0 .589.042.842.757.842h3.034v4h-4.684c-3.072 0-3.955-1.977-3.955-4.8z"/>
    </g>
</svg>
