<svg width="1920" height="80" viewBox="0 0 1920 80" fill="none" xmlns="http://www.w3.org/2000/svg">
<rect width="1920" height="80" fill="#121212"/>
<mask id="mask0" mask-type="alpha" maskUnits="userSpaceOnUse" x="0" y="0" width="1920" height="80">
<rect width="1920" height="80" fill="#121212"/>
</mask>
<g mask="url(#mask0)">
<path opacity="0.1" fill-rule="evenodd" clip-rule="evenodd" d="M0 71.8683L36.2053 54.1243C72.4106 36.3802 144.821 0.892182 217.232 23.0722C289.643 45.2522 362.053 125.1 434.464 147.28C506.875 169.46 579.285 133.972 651.696 107.356C724.106 80.7403 796.517 62.9963 868.928 76.3043C941.338 89.6123 1013.75 133.972 1049.95 156.152L1124.18 204.948H1086.16H1049.95C1013.75 204.948 941.338 204.948 868.928 204.948C796.517 204.948 724.106 204.948 651.696 204.948C579.285 204.948 506.875 204.948 434.464 204.948C362.053 204.948 289.643 204.948 217.232 204.948C144.821 204.948 72.4106 204.948 36.2053 204.948H0V71.8683Z" fill="#E0E0E0" fill-opacity="0.5"/>
</g>
</svg>
